<svg xmlns="http://www.w3.org/2000/svg" width="860" height="460" viewBox="0 0 860 460" role="img" aria-label="FD-CATE quick benchmark RMSE plot">
<rect width="100%" height="100%" fill="#ffffff"/>
<text x="430" y="26" text-anchor="middle" font-family="Arial, sans-serif" font-size="20" fill="#111827">FD-CATE Quick Benchmark RMSE (XGB)</text>
<line x1="80" y1="50" x2="80" y2="360" stroke="#111827" stroke-width="2"/>
<line x1="80" y1="360" x2="830" y2="360" stroke="#111827" stroke-width="2"/>
<line x1="74" y1="360.0" x2="80" y2="360.0" stroke="#111827" stroke-width="1"/>
<text x="70" y="364.0" text-anchor="end" font-family="Arial, sans-serif" font-size="12" fill="#374151">0.0</text>
<line x1="74" y1="298.0" x2="80" y2="298.0" stroke="#111827" stroke-width="1"/>
<text x="70" y="302.0" text-anchor="end" font-family="Arial, sans-serif" font-size="12" fill="#374151">0.2</text>
<line x1="80" y1="298.0" x2="830" y2="298.0" stroke="#e5e7eb" stroke-width="1"/>
<line x1="74" y1="236.0" x2="80" y2="236.0" stroke="#111827" stroke-width="1"/>
<text x="70" y="240.0" text-anchor="end" font-family="Arial, sans-serif" font-size="12" fill="#374151">0.4</text>
<line x1="80" y1="236.0" x2="830" y2="236.0" stroke="#e5e7eb" stroke-width="1"/>
<line x1="74" y1="174.0" x2="80" y2="174.0" stroke="#111827" stroke-width="1"/>
<text x="70" y="178.0" text-anchor="end" font-family="Arial, sans-serif" font-size="12" fill="#374151">0.6</text>
<line x1="80" y1="174.0" x2="830" y2="174.0" stroke="#e5e7eb" stroke-width="1"/>
<line x1="74" y1="112.0" x2="80" y2="112.0" stroke="#111827" stroke-width="1"/>
<text x="70" y="116.0" text-anchor="end" font-family="Arial, sans-serif" font-size="12" fill="#374151">0.8</text>
<line x1="80" y1="112.0" x2="830" y2="112.0" stroke="#e5e7eb" stroke-width="1"/>
<line x1="74" y1="50.0" x2="80" y2="50.0" stroke="#111827" stroke-width="1"/>
<text x="70" y="54.0" text-anchor="end" font-family="Arial, sans-serif" font-size="12" fill="#374151">1.0</text>
<line x1="80" y1="50.0" x2="830" y2="50.0" stroke="#e5e7eb" stroke-width="1"/>
<text x="18" y="205.0" transform="rotate(-90 18 205.0)" text-anchor="middle" font-family="Arial, sans-serif" font-size="13" fill="#111827">RMSE (lower is better)</text>
<rect x="125.0" y="256.3" width="45.0" height="103.7" fill="#2563eb" opacity="0.90"/>
<text x="147.5" y="250.3" text-anchor="middle" font-family="Arial, sans-serif" font-size="11" fill="#111827">0.334</text>
<rect x="182.5" y="257.6" width="45.0" height="102.4" fill="#dc2626" opacity="0.90"/>
<text x="205.0" y="251.6" text-anchor="middle" font-family="Arial, sans-serif" font-size="11" fill="#111827">0.330</text>
<rect x="240.0" y="116.2" width="45.0" height="243.8" fill="#16a34a" opacity="0.90"/>
<text x="262.5" y="110.2" text-anchor="middle" font-family="Arial, sans-serif" font-size="11" fill="#111827">0.786</text>
<text x="205.0" y="384" text-anchor="middle" font-family="Arial, sans-serif" font-size="12" fill="#111827">clean</text>
<rect x="375.0" y="282.8" width="45.0" height="77.2" fill="#2563eb" opacity="0.90"/>
<text x="397.5" y="276.8" text-anchor="middle" font-family="Arial, sans-serif" font-size="11" fill="#111827">0.249</text>
<rect x="432.5" y="202.0" width="45.0" height="158.0" fill="#dc2626" opacity="0.90"/>
<text x="455.0" y="196.0" text-anchor="middle" font-family="Arial, sans-serif" font-size="11" fill="#111827">0.510</text>
<rect x="490.0" y="87.4" width="45.0" height="272.6" fill="#16a34a" opacity="0.90"/>
<text x="512.5" y="81.4" text-anchor="middle" font-family="Arial, sans-serif" font-size="11" fill="#111827">0.879</text>
<text x="455.0" y="384" text-anchor="middle" font-family="Arial, sans-serif" font-size="12" fill="#111827">weak-overlap</text>
<rect x="625.0" y="269.6" width="45.0" height="90.4" fill="#2563eb" opacity="0.90"/>
<text x="647.5" y="263.6" text-anchor="middle" font-family="Arial, sans-serif" font-size="11" fill="#111827">0.292</text>
<rect x="682.5" y="229.8" width="45.0" height="130.2" fill="#dc2626" opacity="0.90"/>
<text x="705.0" y="223.8" text-anchor="middle" font-family="Arial, sans-serif" font-size="11" fill="#111827">0.420</text>
<rect x="740.0" y="101.8" width="45.0" height="258.2" fill="#16a34a" opacity="0.90"/>
<text x="762.5" y="95.8" text-anchor="middle" font-family="Arial, sans-serif" font-size="11" fill="#111827">0.833</text>
<text x="705.0" y="384" text-anchor="middle" font-family="Arial, sans-serif" font-size="12" fill="#111827">aggregate mean</text>
<rect x="92" y="406" width="14" height="14" fill="#2563eb"/>
<text x="112" y="418" font-family="Arial, sans-serif" font-size="12" fill="#111827">FD-PI</text>
<rect x="242" y="406" width="14" height="14" fill="#dc2626"/>
<text x="262" y="418" font-family="Arial, sans-serif" font-size="12" fill="#111827">FD-DR</text>
<rect x="392" y="406" width="14" height="14" fill="#16a34a"/>
<text x="412" y="418" font-family="Arial, sans-serif" font-size="12" fill="#111827">FD-R</text>
</svg>
